<svg xmlns="http://www.w3.org/2000/svg" viewBox="0 0 167.84 35.18"><defs><style>.cls-1{isolation:isolate;}.cls-2{fill:#2584ff;stroke:#2584ff;}.cls-2,.cls-3{stroke-linecap:round;stroke-linejoin:round;stroke-width:10px;fill-rule:evenodd;mix-blend-mode:lighten;}.cls-3{fill:#ff3400;stroke:#ff3400;}.cls-4{fill:#fff;}</style></defs><title>logo</title><g class="cls-1"><g id="Layer_1" data-name="Layer 1"><path id="Polygon_1_copy_2" data-name="Polygon 1 copy 2" class="cls-2" d="M43.85,29.7,24.24,39.2,32,14Z" transform="translate(-19.24 -9.02)"/><path id="Polygon_1_copy_2-2" data-name="Polygon 1 copy 2-2" class="cls-3" d="M37,29.7l19.61,9.5L48.85,14Z" transform="translate(-19.24 -9.02)"/><g id="Moshify" class="cls-1"><path class="cls-4" d="M70.76,16.2h5.69l6,14.66h.25l6-14.66h5.69V38H89.94V23.82h-.19L84.11,37.91h-3L75.42,23.76h-.18V38H70.76Z" transform="translate(-19.24 -9.02)"/><path class="cls-4" d="M105.51,38.33a8.37,8.37,0,0,1-4.29-1,7.18,7.18,0,0,1-2.78-3,9.37,9.37,0,0,1-1-4.41,9.5,9.5,0,0,1,1-4.44,7.16,7.16,0,0,1,2.78-3,9.21,9.21,0,0,1,8.58,0,7.16,7.16,0,0,1,2.78,3,9.62,9.62,0,0,1,1,4.44,9.49,9.49,0,0,1-1,4.41,7.18,7.18,0,0,1-2.78,3A8.42,8.42,0,0,1,105.51,38.33Zm0-3.51a2.83,2.83,0,0,0,1.89-.64,4,4,0,0,0,1.14-1.77,7.66,7.66,0,0,0,.39-2.54,7.76,7.76,0,0,0-.39-2.55,4.12,4.12,0,0,0-1.14-1.77,2.84,2.84,0,0,0-1.89-.65,2.87,2.87,0,0,0-1.91.65,4,4,0,0,0-1.16,1.77,7.76,7.76,0,0,0-.39,2.55,7.66,7.66,0,0,0,.39,2.54,3.87,3.87,0,0,0,1.16,1.77A2.86,2.86,0,0,0,105.53,34.82Z" transform="translate(-19.24 -9.02)"/><path class="cls-4" d="M130.14,26.32l-4.16.26a2.13,2.13,0,0,0-.46-1,2.4,2.4,0,0,0-.92-.69,3.3,3.3,0,0,0-1.36-.26,3.43,3.43,0,0,0-1.78.44,1.34,1.34,0,0,0-.72,1.18,1.27,1.27,0,0,0,.47,1,3.8,3.8,0,0,0,1.61.65l3,.59a7.42,7.42,0,0,1,3.56,1.58A3.73,3.73,0,0,1,130.51,33a4.52,4.52,0,0,1-.94,2.82A6.16,6.16,0,0,1,127,37.66a9.83,9.83,0,0,1-3.77.67A8.85,8.85,0,0,1,118.05,37a5.26,5.26,0,0,1-2.25-3.7l4.46-.24a2.31,2.31,0,0,0,1,1.51,4.13,4.13,0,0,0,3.92.05,1.43,1.43,0,0,0,.74-1.2,1.27,1.27,0,0,0-.53-1,3.82,3.82,0,0,0-1.57-.62L121,31.21a6.77,6.77,0,0,1-3.56-1.66,4.12,4.12,0,0,1-1.16-3,4.38,4.38,0,0,1,.85-2.71,5.43,5.43,0,0,1,2.42-1.76,10,10,0,0,1,3.66-.62,8.1,8.1,0,0,1,4.88,1.31A5.08,5.08,0,0,1,130.14,26.32Z" transform="translate(-19.24 -9.02)"/><path class="cls-4" d="M137.91,28.56V38h-4.54V16.2h4.41v8.34h.2a4.63,4.63,0,0,1,1.78-2.27,5.49,5.49,0,0,1,3.1-.83,5.86,5.86,0,0,1,3,.74,5.07,5.07,0,0,1,2,2.12,7.05,7.05,0,0,1,.7,3.3V38H144V28.41a3.29,3.29,0,0,0-.76-2.36,2.77,2.77,0,0,0-2.16-.84,3.23,3.23,0,0,0-1.63.4,2.77,2.77,0,0,0-1.11,1.14A3.87,3.87,0,0,0,137.91,28.56Z" transform="translate(-19.24 -9.02)"/><path class="cls-4" d="M154.39,19.55a2.47,2.47,0,0,1-1.74-.68,2.18,2.18,0,0,1,0-3.24,2.55,2.55,0,0,1,3.47,0,2.18,2.18,0,0,1,0,3.24A2.45,2.45,0,0,1,154.39,19.55ZM152.1,38V21.65h4.54V38Z" transform="translate(-19.24 -9.02)"/><path class="cls-4" d="M169.06,21.65v3.41H159V21.65ZM161.27,38V20.47a5.65,5.65,0,0,1,.7-2.95,4.39,4.39,0,0,1,1.91-1.76,6.28,6.28,0,0,1,2.76-.58,10.31,10.31,0,0,1,1.91.16,10.12,10.12,0,0,1,1.29.29L169,19c-.18-.05-.4-.11-.66-.16a4.15,4.15,0,0,0-.79-.07,1.76,1.76,0,0,0-1.4.46,2,2,0,0,0-.39,1.3V38Z" transform="translate(-19.24 -9.02)"/><path class="cls-4" d="M174.63,44.12A9.17,9.17,0,0,1,173,44a6.62,6.62,0,0,1-1.24-.33l1-3.4a4,4,0,0,0,2,.2,1.93,1.93,0,0,0,1.31-1.28l.27-.7-5.87-16.83h4.77l3.39,12h.17l3.42-12,4.8,0-6.36,18.1a7.51,7.51,0,0,1-1.24,2.29,5.24,5.24,0,0,1-2,1.51A6.9,6.9,0,0,1,174.63,44.12Z" transform="translate(-19.24 -9.02)"/></g></g></g></svg>